<svg width="316" height="109" viewBox="0 0 316 109" fill="none" xmlns="http://www.w3.org/2000/svg">
<path d="M280.824 108.928C275.96 108.928 271.992 107.008 268.92 103.168C265.933 99.328 264.44 94.2933 264.44 88.064C264.44 81.2373 266.019 74.7946 269.176 68.736C272.333 62.592 276.515 57.6853 281.72 54.016C287.011 50.2613 292.6 48.384 298.488 48.384C300.365 48.384 301.603 48.768 302.2 49.536C302.883 50.2186 303.437 51.4986 303.864 53.376C305.485 53.0346 307.277 52.864 309.24 52.864C311.288 52.864 312.867 53.376 313.976 54.4C315.085 55.424 315.64 56.8746 315.64 58.752C315.64 60.7146 315.213 64.128 314.36 68.992C313.421 74.1973 312.696 79.1893 312.184 83.968C311.672 88.6613 311.416 93.952 311.416 99.84C311.416 103.083 310.733 105.429 309.368 106.88C308.088 108.245 305.955 108.928 302.968 108.928C300.067 108.928 297.891 108.245 296.44 106.88C295.075 105.429 294.392 103.125 294.392 99.968L294.52 97.92C291.875 105.259 287.309 108.928 280.824 108.928ZM285.816 96C288.205 96 290.381 94.336 292.344 91.008C294.307 87.68 296.056 81.7493 297.592 73.216L300.024 60.288C296.525 60.3733 293.283 61.7386 290.296 64.384C287.309 66.944 284.92 70.3573 283.128 74.624C281.336 78.8906 280.44 83.4133 280.44 88.192C280.44 90.752 280.909 92.7146 281.848 94.08C282.872 95.36 284.195 96 285.816 96Z" fill="url(#paint0_linear_7_35)"/>
<path d="M179.942 108.928C176.699 108.928 174.395 107.221 173.03 103.808C171.75 100.395 171.11 94.9333 171.11 87.424C171.11 76.3307 172.689 65.792 175.846 55.808C176.614 53.3333 177.851 51.5413 179.558 50.432C181.35 49.2373 183.825 48.64 186.982 48.64C188.689 48.64 189.883 48.8533 190.566 49.28C191.249 49.7066 191.59 50.5173 191.59 51.712C191.59 53.0773 190.95 56.1493 189.67 60.928C188.817 64.3413 188.134 67.328 187.622 69.888C187.11 72.3627 186.683 75.4773 186.342 79.232C188.646 72.576 191.377 66.944 194.534 62.336C197.777 57.728 201.062 54.3147 204.39 52.096C207.803 49.792 211.003 48.64 213.99 48.64C216.977 48.64 219.067 49.3226 220.262 50.688C221.542 52.0533 222.182 54.144 222.182 56.96C222.182 59.6907 221.371 64.64 219.75 71.808C219.067 74.88 218.598 77.184 218.342 78.72C222.609 68.224 227.345 60.5867 232.55 55.808C237.755 51.0293 242.619 48.64 247.142 48.64C252.689 48.64 255.462 51.4133 255.462 56.96C255.462 60.288 254.523 66.304 252.646 75.008C251.025 82.432 250.214 87.3387 250.214 89.728C250.214 93.1413 251.451 94.848 253.926 94.848C255.633 94.848 257.638 93.824 259.942 91.776C262.331 89.6427 265.489 86.2293 269.414 81.536C270.438 80.3413 271.59 79.744 272.87 79.744C273.979 79.744 274.833 80.256 275.43 81.28C276.113 82.304 276.454 83.712 276.454 85.504C276.454 88.9173 275.643 91.5626 274.022 93.44C270.353 97.9626 266.385 101.675 262.118 104.576C257.937 107.477 253.158 108.928 247.782 108.928C243.43 108.928 240.145 107.691 237.926 105.216C235.707 102.656 234.598 98.9867 234.598 94.208C234.598 91.8187 235.195 87.552 236.39 81.408C237.499 76.032 238.054 72.32 238.054 70.272C238.054 68.9066 237.585 68.224 236.646 68.224C235.537 68.224 233.958 69.6746 231.91 72.576C229.862 75.392 227.814 79.1467 225.766 83.84C223.718 88.5333 222.054 93.4826 220.774 98.688C219.835 102.784 218.726 105.515 217.446 106.88C216.251 108.245 214.289 108.928 211.558 108.928C208.742 108.928 206.609 107.605 205.158 104.96C203.793 102.229 203.11 98.944 203.11 95.104C203.11 91.8613 203.537 87.168 204.39 81.024C205.073 75.5626 205.414 71.9786 205.414 70.272C205.414 68.9066 204.945 68.224 204.006 68.224C202.726 68.224 201.105 69.76 199.142 72.832C197.179 75.904 195.259 79.8293 193.382 84.608C191.59 89.3867 190.139 94.08 189.03 98.688C188.091 102.699 186.982 105.429 185.702 106.88C184.507 108.245 182.587 108.928 179.942 108.928Z" fill="url(#paint1_linear_7_35)"/>
<path d="M124.785 108.928C120.945 108.928 117.788 107.179 115.313 103.68C112.924 100.096 111.729 95.6587 111.729 90.368C111.729 83.968 112.156 78.1227 113.009 72.832C113.862 67.456 115.27 61.7813 117.233 55.808C118.086 53.248 119.281 51.4133 120.817 50.304C122.353 49.1947 124.785 48.64 128.113 48.64C129.99 48.64 131.27 48.9387 131.953 49.536C132.721 50.1333 133.105 51.0293 133.105 52.224C133.105 52.9067 132.636 55.2107 131.697 59.136C130.844 62.2933 130.161 65.152 129.649 67.712C127.942 76.672 127.089 82.6453 127.089 85.632C127.089 87.424 127.302 88.704 127.729 89.472C128.156 90.1547 128.838 90.496 129.777 90.496C131.057 90.496 132.636 89.216 134.513 86.656C136.476 84.096 138.524 80.2133 140.657 75.008C142.876 69.8027 145.009 63.4027 147.057 55.808C147.74 53.248 148.764 51.4133 150.129 50.304C151.58 49.1947 153.713 48.64 156.529 48.64C158.492 48.64 159.857 48.896 160.625 49.408C161.393 49.8346 161.777 50.688 161.777 51.968C161.777 54.1013 160.71 59.9467 158.577 69.504C156.188 80.4267 154.993 87.168 154.993 89.728C154.993 91.3493 155.334 92.6293 156.017 93.568C156.7 94.4213 157.596 94.848 158.705 94.848C160.412 94.848 162.417 93.824 164.721 91.776C167.11 89.6427 170.268 86.2293 174.193 81.536C175.217 80.3413 176.369 79.744 177.649 79.744C178.758 79.744 179.612 80.256 180.209 81.28C180.892 82.304 181.233 83.712 181.233 85.504C181.233 88.9173 180.422 91.5626 178.801 93.44C175.132 97.9626 171.164 101.675 166.897 104.576C162.716 107.477 157.937 108.928 152.561 108.928C148.465 108.928 145.436 107.349 143.473 104.192C141.596 101.035 140.657 96.5973 140.657 90.88C139.206 96.6826 137.03 101.163 134.129 104.32C131.228 107.392 128.113 108.928 124.785 108.928Z" fill="url(#paint2_linear_7_35)"/>
<path d="M118.528 79.744C119.637 79.744 120.491 80.256 121.088 81.28C121.771 82.304 122.112 83.712 122.112 85.504C122.112 88.832 121.301 91.4773 119.68 93.44C115.584 98.3893 111.445 102.229 107.264 104.96C103.083 107.605 98.1333 108.928 92.416 108.928C86.8693 108.928 82.1333 107.435 78.208 104.448C74.368 101.461 70.6987 96.3413 67.2 89.088C64.384 83.2853 62.1653 79.0187 60.544 76.288C58.9227 73.472 57.3013 71.4667 55.68 70.272C54.144 69.0773 52.224 68.352 49.92 68.096C49.5787 69.888 48.5973 75.52 46.976 84.992C46.2933 89.2587 45.8667 91.8613 45.696 92.8C44.8427 98.0053 43.136 102.016 40.576 104.832C38.016 107.563 34.1333 108.928 28.928 108.928C23.2107 108.928 18.1333 107.264 13.696 103.936C9.344 100.523 5.97333 95.8293 3.584 89.856C1.19467 83.7973 0 76.928 0 69.248C0 54.912 2.47467 42.5387 7.424 32.128C12.4587 21.7173 19.456 13.7813 28.416 8.32C37.4613 2.77333 47.872 0 59.648 0C67.84 0 74.7093 1.23733 80.256 3.712C85.8027 6.18666 89.8987 9.6 92.544 13.952C95.2747 18.304 96.64 23.2107 96.64 28.672C96.64 33.4507 95.488 38.144 93.184 42.752C90.9653 47.2747 87.5947 51.2853 83.072 54.784C78.5493 58.2827 73.0453 60.8853 66.56 62.592C70.656 63.7013 73.8133 65.4933 76.032 67.968C78.2507 70.4427 80.4693 74.0693 82.688 78.848C85.0773 83.968 87.424 87.7227 89.728 90.112C92.1173 92.5013 94.848 93.696 97.92 93.696C100.651 93.696 103.253 92.8 105.728 91.008C108.203 89.1307 111.317 85.9733 115.072 81.536C116.096 80.3413 117.248 79.744 118.528 79.744ZM32.256 67.968C29.3547 67.968 27.3493 67.2853 26.24 65.92C25.216 64.5547 24.704 63.0187 24.704 61.312C24.704 59.264 25.344 57.6427 26.624 56.448C27.9893 55.2533 29.5253 54.656 31.232 54.656H34.432C35.7973 46.2933 37.0773 39.0827 38.272 33.024C39.3813 27.4773 42.9653 24.704 49.024 24.704C53.888 24.704 56.32 26.88 56.32 31.232C56.32 32.1707 56.2773 32.896 56.192 33.408L52.352 54.656C56.96 54.4 61.1413 53.2907 64.896 51.328C68.736 49.3653 71.7653 46.6347 73.984 43.136C76.288 39.6373 77.44 35.6693 77.44 31.232C77.44 25.856 75.6053 21.632 71.936 18.56C68.2667 15.488 62.8907 13.952 55.808 13.952C47.4453 13.952 40.1067 16.0427 33.792 20.224C27.5627 24.32 22.6987 30.464 19.2 38.656C15.7013 46.7627 13.952 56.6613 13.952 68.352C13.952 73.8133 14.5067 78.5067 15.616 82.432C16.7253 86.3573 18.0907 89.3013 19.712 91.264C21.3333 93.2267 22.8693 94.208 24.32 94.208C25.4293 94.208 26.3253 93.6533 27.008 92.544C27.776 91.4347 28.3733 89.6427 28.8 87.168L32.256 67.968Z" fill="url(#paint3_linear_7_35)"/>
<defs>
<linearGradient id="paint0_linear_7_35" x1="49.5956" y1="-16.712" x2="296.907" y2="111.356" gradientUnits="userSpaceOnUse">
<stop stop-color="#00C8FF"/>
<stop offset="1" stop-color="#D2EEF0"/>
</linearGradient>
<linearGradient id="paint1_linear_7_35" x1="49.5956" y1="-16.712" x2="296.907" y2="111.356" gradientUnits="userSpaceOnUse">
<stop stop-color="#00C8FF"/>
<stop offset="1" stop-color="#D2EEF0"/>
</linearGradient>
<linearGradient id="paint2_linear_7_35" x1="49.5956" y1="-16.712" x2="296.907" y2="111.356" gradientUnits="userSpaceOnUse">
<stop stop-color="#00C8FF"/>
<stop offset="1" stop-color="#D2EEF0"/>
</linearGradient>
<linearGradient id="paint3_linear_7_35" x1="49.5956" y1="-16.712" x2="296.907" y2="111.356" gradientUnits="userSpaceOnUse">
<stop stop-color="#00C8FF"/>
<stop offset="1" stop-color="#D2EEF0"/>
</linearGradient>
</defs>
</svg>
